<?xml version="1.0" standalone="no"?>
<!DOCTYPE svg PUBLIC "-//W3C//DTD SVG 20010904//EN"
 "http://www.w3.org/TR/2001/REC-SVG-20010904/DTD/svg10.dtd">
<svg version="1.0" xmlns="http://www.w3.org/2000/svg"
 width="464.000000pt" height="87.000000pt" viewBox="0 0 464.000000 87.000000"
 preserveAspectRatio="xMidYMid meet">

<g transform="translate(0.000000,87.000000) scale(0.100000,-0.100000)"
fill="#000000" stroke="none">
<path d="M351 839 c-73 -14 -164 -63 -218 -117 -221 -221 -126 -599 174 -692
156 -48 308 -6 423 116 83 89 105 149 105 285 0 101 -1 108 -38 181 -60 123
-165 202 -301 227 -67 12 -83 12 -145 0z m134 -50 c67 -12 122 -38 177 -81 22
-18 41 -27 49 -22 9 5 10 2 6 -10 -6 -14 -3 -16 16 -11 21 6 21 6 3 -9 -20
-16 -16 -20 17 -16 16 1 17 -2 7 -20 -9 -17 -8 -30 5 -62 26 -65 30 -155 11
-224 -46 -162 -180 -263 -348 -264 -111 0 -176 27 -254 104 -79 79 -107 147
-107 261 -1 69 3 89 29 145 52 110 139 181 254 206 71 16 67 16 135 3z"/>
<path d="M339 767 c-108 -31 -202 -115 -240 -216 -29 -79 -24 -193 13 -273 32
-70 96 -133 168 -167 47 -22 68 -26 150 -26 80 0 103 4 145 25 73 36 147 114
175 185 32 80 32 189 2 258 l-22 48 -30 -18 c-44 -26 -67 -49 -86 -86 -24 -47
-63 -85 -101 -98 -18 -6 -33 -15 -33 -21 0 -6 8 -7 18 -3 9 4 34 9 55 12 29 5
37 2 37 -10 0 -9 -10 -19 -22 -23 -13 -3 -42 -24 -65 -45 -24 -22 -47 -39 -53
-39 -6 0 -8 -10 -4 -24 4 -18 1 -25 -14 -28 -11 -3 -25 -1 -31 5 -6 6 -15 4
-26 -7 -9 -9 -21 -16 -26 -16 -15 0 -10 18 8 29 10 5 15 12 12 15 -3 3 -16 -2
-29 -11 -26 -18 -60 -25 -60 -11 0 4 7 8 16 8 12 0 44 54 44 75 0 11 -31 4
-36 -9 -8 -20 -44 -8 -44 15 0 10 9 33 20 51 28 46 26 57 -25 117 -50 58 -58
87 -23 78 11 -3 34 1 49 9 33 17 43 18 34 4 -3 -5 2 -10 12 -11 16 0 16 -1 -2
-9 -16 -7 -16 -9 -4 -9 9 -1 31 -14 49 -31 18 -16 37 -30 44 -30 6 1 26 21 44
45 18 25 47 51 65 59 18 7 56 33 84 56 50 41 52 44 36 62 -52 58 -209 92 -304
65z m350 -531 c9 -10 9 -16 1 -21 -13 -8 -42 14 -34 26 8 13 20 11 33 -5z
m-483 -22 c-3 -9 -6 -18 -6 -20 0 -3 -6 1 -14 8 -10 9 -11 15 -2 20 19 13 28
9 22 -8z m455 -27 c-12 -12 -41 -2 -41 15 0 9 3 9 12 0 19 -19 32 -14 17 6
-13 15 -12 16 4 3 12 -9 14 -18 8 -24z m-416 2 c0 -8 -6 -13 -13 -11 -8 1 -11
-2 -7 -8 3 -5 2 -10 -3 -10 -17 0 -21 12 -9 31 13 21 32 20 32 -2z m380 -21
c5 4 5 1 1 -6 -6 -10 -11 -10 -22 -1 -8 6 -14 17 -14 23 0 6 7 3 14 -6 7 -10
17 -14 21 -10z m-345 3 c0 -5 -3 -16 -6 -25 -5 -12 -9 -13 -19 -3 -9 8 -10 16
-3 25 12 14 28 16 28 3z m296 -8 c0 -11 5 -17 14 -15 12 3 13 1 3 -9 -17 -17
-38 3 -30 25 8 21 15 20 13 -1z m-250 -23 c-1 -17 -16 -31 -16 -15 0 3 0 12 0
20 0 8 4 15 9 15 4 0 8 -9 7 -20z m199 10 c-3 -5 -1 -10 4 -10 6 0 11 -7 11
-15 0 -8 -5 -15 -11 -15 -5 0 -7 5 -4 10 3 6 4 10 1 10 -2 0 -11 3 -20 6 -11
4 -16 0 -17 -12 0 -17 -1 -17 -8 1 -6 15 -3 21 13 27 32 9 38 9 31 -2z m-155
-14 c0 -8 -7 -16 -15 -20 -10 -4 -15 1 -15 14 0 11 7 20 15 20 8 0 15 -6 15
-14z m50 -16 c0 -13 -7 -20 -20 -20 -13 0 -20 7 -20 20 0 13 7 20 20 20 13 0
20 -7 20 -20z m31 11 c7 11 9 9 9 -7 0 -12 -6 -21 -15 -21 -9 0 -15 9 -14 21
0 13 3 16 6 7 5 -11 7 -11 14 0z"/>
<path d="M390 120 c0 -5 5 -10 10 -10 6 0 10 5 10 10 0 6 -4 10 -10 10 -5 0
-10 -4 -10 -10z"/>
<path d="M657 673 c-12 -12 -7 -22 8 -17 8 4 15 10 15 15 0 11 -14 12 -23 2z"/>
<path d="M695 630 c-3 -5 -1 -10 4 -10 6 0 11 5 11 10 0 6 -2 10 -4 10 -3 0
-8 -4 -11 -10z"/>
<path d="M1905 596 c-31 -13 -55 -51 -55 -85 0 -37 38 -69 110 -90 88 -27 111
-60 70 -101 -14 -14 -33 -20 -61 -20 -34 0 -47 6 -74 34 -21 23 -36 31 -45 26
-11 -7 -10 -14 5 -37 25 -38 44 -51 87 -58 44 -8 98 8 122 34 9 10 19 34 22
53 9 50 -25 85 -101 104 -92 24 -122 64 -73 98 39 27 111 13 123 -24 4 -12 12
-16 25 -13 18 5 18 7 4 35 -26 50 -99 70 -159 44z"/>
<path d="M2460 593 c-120 -63 -97 -304 32 -328 89 -17 153 57 152 175 -1 101
-38 154 -115 166 -22 3 -47 -2 -69 -13z m113 -52 c68 -81 30 -241 -58 -241
-88 0 -126 160 -58 241 18 21 34 29 58 29 24 0 40 -8 58 -29z"/>
<path d="M3255 596 c-31 -13 -55 -51 -55 -85 0 -37 38 -69 110 -90 88 -27 111
-60 70 -101 -14 -14 -33 -20 -61 -20 -34 0 -47 6 -74 34 -21 23 -36 31 -45 26
-11 -7 -10 -14 5 -37 25 -38 44 -51 87 -58 44 -8 98 8 122 34 9 10 19 34 22
53 9 50 -25 85 -101 104 -92 24 -122 64 -73 98 39 27 111 13 123 -24 4 -12 12
-16 25 -13 18 5 18 7 4 35 -26 50 -99 70 -159 44z"/>
<path d="M3663 595 c-117 -51 -101 -300 22 -331 58 -15 120 22 139 82 8 27
-22 43 -31 16 -23 -66 -94 -83 -136 -32 -68 80 -29 240 58 240 32 0 48 -12 80
-64 7 -10 15 -13 24 -7 22 14 -15 80 -55 97 -41 17 -60 17 -101 -1z"/>
<path d="M1026 573 c-3 -16 -25 -90 -50 -165 -38 -120 -42 -138 -27 -138 12 0
21 14 30 50 l13 50 63 0 64 0 13 -47 c10 -36 19 -49 35 -51 l22 -3 -25 78
c-13 43 -36 117 -51 166 -25 81 -28 87 -54 87 -21 0 -28 -6 -33 -27z m62 -100
l21 -63 -51 0 c-36 0 -49 4 -45 13 2 6 12 38 21 71 10 32 21 55 25 50 5 -5 18
-37 29 -71z"/>
<path d="M1220 436 l0 -166 74 0 c123 0 156 21 156 99 0 41 -26 81 -51 81 -7
0 0 9 15 21 33 26 36 77 5 105 -17 15 -40 20 -110 22 l-89 4 0 -166z m175 104
c17 -18 17 -21 1 -45 -15 -22 -23 -25 -76 -25 l-60 0 0 45 0 45 58 0 c46 0 63
-4 77 -20z m-9 -118 c13 -8 34 -46 34 -61 0 -6 -9 -20 -20 -31 -16 -16 -33
-20 -80 -20 l-60 0 0 60 0 60 58 0 c31 0 62 -4 68 -8z"/>
<path d="M1566 573 c-3 -16 -25 -90 -50 -165 -38 -120 -42 -138 -27 -138 12 0
21 14 30 50 l13 50 63 0 64 0 13 -47 c10 -36 19 -49 35 -51 l22 -3 -25 78
c-13 43 -36 117 -51 166 -25 81 -28 87 -54 87 -21 0 -28 -6 -33 -27z m62 -100
l21 -63 -51 0 c-36 0 -49 4 -45 13 2 6 12 38 21 71 10 32 21 55 25 50 5 -5 18
-37 29 -71z"/>
<path d="M2140 436 c0 -159 1 -166 20 -166 18 0 20 7 20 64 l0 64 66 4 c58 4
70 8 90 32 33 37 32 95 0 133 -23 26 -31 28 -110 32 l-86 3 0 -166z m162 107
c22 -20 23 -61 1 -85 -12 -13 -30 -18 -70 -18 l-53 0 0 60 0 60 52 0 c34 0 58
-6 70 -17z"/>
<path d="M2700 436 c0 -159 1 -166 20 -166 18 0 20 7 20 70 l0 70 48 0 47 0
29 -70 c21 -53 33 -70 48 -70 22 0 20 9 -17 93 l-22 52 28 26 c38 35 39 86 5
126 -23 26 -30 28 -115 31 l-91 4 0 -166z m171 114 c24 -13 25 -57 2 -82 -12
-13 -31 -18 -75 -18 l-58 0 0 55 0 55 56 0 c30 0 64 -5 75 -10z"/>
<path d="M2960 580 c0 -17 7 -20 45 -20 l45 0 0 -145 c0 -138 1 -145 20 -145
19 0 20 7 20 145 l0 145 45 0 c38 0 45 3 45 20 0 19 -7 20 -110 20 -103 0
-110 -1 -110 -20z"/>
<path d="M3870 435 l0 -165 95 0 c88 0 95 1 95 20 0 18 -7 20 -75 20 l-75 0 0
145 c0 138 -1 145 -20 145 -19 0 -20 -7 -20 -165z"/>
<path d="M4090 461 c0 -133 1 -141 24 -168 21 -24 31 -28 80 -28 47 0 60 4 83
28 28 27 28 30 31 167 3 122 2 140 -12 140 -14 0 -16 -18 -16 -124 0 -110 -2
-126 -21 -150 -16 -20 -29 -26 -58 -26 -64 0 -71 17 -71 168 0 125 -1 132 -20
132 -19 0 -20 -7 -20 -139z"/>
<path d="M4380 436 l0 -166 74 0 c123 0 156 21 156 99 0 41 -26 81 -51 81 -7
0 0 9 15 21 33 26 36 77 5 105 -17 15 -40 20 -110 22 l-89 4 0 -166z m175 104
c17 -18 17 -21 1 -45 -15 -22 -23 -25 -76 -25 l-60 0 0 45 0 45 58 0 c46 0 63
-4 77 -20z m-9 -118 c13 -8 34 -46 34 -61 0 -6 -9 -20 -20 -31 -16 -16 -33
-20 -80 -20 l-60 0 0 60 0 60 58 0 c31 0 62 -4 68 -8z"/>
</g>
</svg>
